name Walk7.mot
datacolumns 19
datarows 12
range 3.46000000 3.51500000
endheader

                time	   L_ground_force_vx	   L_ground_force_vy	   L_ground_force_vz	   L_ground_force_px	   L_ground_force_py	   L_ground_force_pz	   R_ground_force_vx	   R_ground_force_vy	   R_ground_force_vz	   R_ground_force_px	   R_ground_force_py	   R_ground_force_pz	   L_ground_torque_x	   L_ground_torque_y	   L_ground_torque_z	   R_ground_torque_x	   R_ground_torque_y	   R_ground_torque_z	
          3.46000000	          0.03817502	          0.00740737	         -0.02017202	          0.00163465	          0.00000000	          0.00098279	        -11.88394166	        894.22495511	        -77.76264654	          0.23008150	          0.00000000	          0.12503818	          0.00000000	         -0.00159599	          0.00000000	          0.00000000	         10.68078128	          0.00000000	
          3.46500000	          0.08322495	          0.16855911	         -0.01024185	          0.00109514	          0.00000000	          0.00067460	        -10.31280210	        892.51535105	        -77.17785868	          0.23109675	          0.00000000	          0.12499866	          0.00000000	         -0.00088912	          0.00000000	          0.00000000	         10.33716468	          0.00000000	
          3.47000000	          0.10553252	          0.25857161	         -0.00306381	          0.00066254	          0.00000000	          0.00042361	         -8.79110142	        890.60656171	        -76.31168069	          0.23214174	          0.00000000	          0.12494269	          0.00000000	         -0.00036550	          0.00000000	          0.00000000	          9.98495225	          0.00000000	
          3.47500000	          0.11149158	          0.29584499	          0.00178163	          0.00033273	          0.00000000	          0.00022915	         -7.30652297	        888.63554260	        -75.23170123	          0.23321328	          0.00000000	          0.12487363	          0.00000000	         -0.00000080	          0.00000000	          0.00000000	          9.62606381	          0.00000000	
          3.48000000	          0.10649538	          0.29634993	          0.00474802	          0.00009491	          0.00000000	          0.00008633	         -5.84698386	        886.73683865	        -74.01469244	          0.23430906	          0.00000000	          0.12479619	          0.00000000	          0.00023313	          0.00000000	          0.00000000	          9.26277169	          0.00000000	
          3.48500000	          0.09486891	          0.27323604	          0.00627479	         -0.00006511	          0.00000000	         -0.00001209	         -4.40193624	        885.03600028	        -72.74256637	          0.23542774	          0.00000000	          0.12471500	          0.00000000	          0.00036471	          0.00000000	          0.00000000	          8.89802026	          0.00000000	
          3.49000000	          0.07991010	          0.23680389	          0.00675762	         -0.00016257	          0.00000000	         -0.00007425	         -2.96352488	        883.64289760	        -71.49683235	          0.23656783	          0.00000000	          0.12463448	          0.00000000	          0.00042025	          0.00000000	          0.00000000	          8.53517504	          0.00000000	
          3.49500000	          0.06399738	          0.19471233	          0.00653281	         -0.00021222	          0.00000000	         -0.00010824	         -1.52723310	        882.64782786	        -70.35386538	          0.23772967	          0.00000000	          0.12455949	          0.00000000	          0.00042262	          0.00000000	          0.00000000	          8.17782337	          0.00000000	
          3.50000000	          0.04873144	          0.15232043	          0.00587197	         -0.00022727	          0.00000000	         -0.00012147	         -0.09204612	        882.11507022	        -69.38204870	          0.23891496	          0.00000000	          0.12449407	          0.00000000	          0.00039072	          0.00000000	          0.00000000	          7.82951362	          0.00000000	
          3.50500000	          0.03508763	          0.11308863	          0.00498379	         -0.00021895	          0.00000000	         -0.00012035	          1.34046623	        882.07948311	        -68.63825457	          0.24012445	          0.00000000	          0.12444145	          0.00000000	          0.00033937	          0.00000000	          0.00000000	          7.49346416	          0.00000000	
          3.51000000	          0.02356310	          0.07898609	          0.00402005	         -0.00019629	          0.00000000	         -0.00011012	          2.76689033	        882.54825176	        -68.16372548	          0.24135905	          0.00000000	          0.12440437	          0.00000000	          0.00027959	          0.00000000	          0.00000000	          7.17199988	          0.00000000	
          3.51500000	          0.01430909	          0.05086995	          0.00308409	         -0.00016624	          0.00000000	         -0.00009484	          4.18213842	        883.50489132	        -67.98251914	          0.24262135	          0.00000000	          0.12438510	          0.00000000	          0.00021915	          0.00000000	          0.00000000	          6.86615073	          0.00000000	
